<svg width="146" height="83" viewBox="0 0 146 83" fill="none" xmlns="http://www.w3.org/2000/svg">
<g clip-path="url(#clip0_94_200)">
<path d="M145.191 64.2751L77.0544 62.7811C76.3295 62.7645 75.7227 63.3455 75.7227 64.0593V65.1881C75.7227 65.9019 76.3127 66.4829 77.0375 66.4663L145.191 65.8521C145.629 65.8521 145.983 65.5035 145.983 65.0553C145.967 64.6403 145.629 64.2917 145.191 64.2751Z" fill="#D13232"/>
<path d="M68.9121 62.7811L0.775431 64.2751C0.337145 64.2917 0 64.6403 0 65.0719C0 65.5035 0.354 65.8521 0.792287 65.8687L68.9458 66.4829C69.6707 66.4829 70.2607 65.9185 70.2607 65.2047V64.0759C70.2438 63.3455 69.6538 62.7645 68.9121 62.7811Z" fill="#D13232"/>
<path d="M6.15264 79.9291C5.79864 80.0951 5.44464 80.2113 5.10749 80.2943C4.77035 80.3773 4.39949 80.4105 4.02863 80.4105C3.65777 80.4105 3.30378 80.3441 3.00035 80.2279C2.69692 80.0951 2.44406 79.9291 2.20806 79.7133C1.98892 79.4975 1.82034 79.2319 1.70234 78.9165C1.58434 78.6011 1.51691 78.2691 1.51691 77.8873C1.51691 77.5055 1.58434 77.1569 1.70234 76.8581C1.8372 76.5427 2.00577 76.2771 2.20806 76.0779C2.4272 75.8621 2.69692 75.6961 3.00035 75.5633C3.30378 75.4471 3.64092 75.3807 4.02863 75.3807C4.65235 75.3807 5.32664 75.5301 6.05149 75.8455L6.37178 75.9783L6.89435 74.8827L6.62464 74.7167C6.2875 74.5009 5.89978 74.3349 5.47835 74.2021C5.02321 74.0527 4.51749 73.9863 3.94435 73.9863C3.40492 73.9863 2.88235 74.0859 2.39349 74.2851C1.92149 74.4843 1.50006 74.7499 1.14606 75.0985C0.792056 75.4471 0.505483 75.8621 0.28634 76.3435C0.0840537 76.8249 -0.0170898 77.3395 -0.0170898 77.8873C-0.0170898 78.4351 0.0840537 78.9663 0.28634 79.4477C0.488626 79.9125 0.775199 80.3275 1.14606 80.6761C1.50006 81.0247 1.92149 81.2903 2.39349 81.4895C2.88235 81.6887 3.38806 81.7883 3.92749 81.7883C4.60178 81.7883 5.19178 81.7219 5.66378 81.5559C6.10207 81.4065 6.48978 81.2239 6.79321 81.0247L7.07978 80.8421L6.45607 79.7797L6.15264 79.9291Z" fill="#01002C"/>
<path d="M51.7178 75.4803H54.3981V81.6721H55.8984V75.4803H58.6124V74.1025H51.7178V75.4803Z" fill="#01002C"/>
<path d="M42.0246 74.2851C41.7212 74.4179 41.4515 74.5839 41.2155 74.8163C40.9795 75.0321 40.8109 75.2811 40.6592 75.5633C40.5244 75.8621 40.4569 76.1775 40.4569 76.5095C40.4569 76.8083 40.5244 77.1071 40.6424 77.3893C40.7604 77.6715 40.9289 77.9205 41.1481 78.1529C41.3672 78.3687 41.6369 78.5513 41.9404 78.6841C42.0584 78.7339 42.1764 78.7837 42.2944 78.8003L39.8838 81.6721H41.7381L44.0475 78.9165H45.1264V81.6721H46.5929V74.1025H43.0024C42.6484 74.1025 42.3281 74.1689 42.0246 74.2851ZM45.1264 77.5553H43.0024C42.8506 77.5553 42.6989 77.5221 42.5809 77.4723C42.4629 77.4225 42.3449 77.3395 42.2606 77.2565C42.1764 77.1569 42.0921 77.0407 42.0415 76.9079C41.9909 76.7751 41.9572 76.6423 41.9572 76.5095C41.9572 76.3601 41.9909 76.2273 42.0415 76.1111C42.1089 75.9783 42.1764 75.8621 42.2606 75.7791C42.3618 75.6795 42.4629 75.6131 42.5809 75.5633C42.7158 75.5135 42.8506 75.4803 43.0024 75.4803H45.1264V77.5553V77.5553Z" fill="#01002C"/>
<path d="M21.1386 74.1025L19.3011 78.0865L17.2108 74.1025H15.5757L18.5594 79.6967L18.5257 79.7631C18.374 80.0619 18.2391 80.2279 18.138 80.2943C18.0031 80.3773 17.902 80.4105 17.8177 80.4105C17.7671 80.4105 17.6997 80.3939 17.5817 80.3607C17.4974 80.3441 17.3794 80.2777 17.2277 80.1615L16.8905 79.9291L16.3005 80.9749L16.5028 81.1575C16.6883 81.3235 16.8905 81.4563 17.1097 81.5725C17.3794 81.7053 17.666 81.7551 17.9694 81.7551C18.4077 81.7551 18.7954 81.6057 19.1157 81.3069C19.4191 81.0247 19.672 80.6429 19.8911 80.1615L22.7737 74.0693H21.1386V74.1025Z" fill="#01002C"/>
<path d="M7.99023 75.4803H10.6705V81.6721H12.154V75.4803H14.868V74.1025H7.99023V75.4803Z" fill="#01002C"/>
<path d="M33.7308 79.0161V74.1025H32.2305V81.6721H33.3936L37.3213 76.7585V81.6721H38.8048V74.1025H37.6585L33.7308 79.0161Z" fill="#01002C"/>
<path d="M29.9886 74.1025H24.4088V74.4511C24.4088 75.1649 24.392 75.8455 24.3414 76.4763C24.3077 77.1071 24.2403 77.6715 24.1728 78.2027C24.1054 78.7173 24.0043 79.1655 23.9031 79.5473C23.8188 79.8295 23.7346 80.0785 23.6334 80.2777H22.7568V83.0001H24.1223L24.2234 81.6721H29.2974L29.3986 83.0001H30.764V80.2777H30.0054V74.1025H29.9886ZM28.4883 80.2777H25.1168C25.1843 80.1117 25.2348 79.9457 25.2854 79.7631C25.4203 79.3481 25.5214 78.8833 25.6057 78.3687C25.69 77.8541 25.7574 77.3229 25.7911 76.7751C25.8248 76.3435 25.8586 75.9119 25.8586 75.4803H28.4883V80.2777Z" fill="#01002C"/>
<path d="M73.7666 75.4803H76.4469V81.6721H77.9472V75.4803H80.6612V74.1025H73.7666V75.4803Z" fill="#01002C"/>
<path d="M102.728 79.0161V74.1025H101.244V81.6721H102.39L106.318 76.7585V81.6721H107.818V74.1025H106.655L102.728 79.0161Z" fill="#01002C"/>
<path d="M120.292 74.1025H118.185L115.05 76.7917V74.1025H113.566V81.6721H115.05V78.8003L118.337 81.6721H120.495L115.96 77.7877L120.292 74.1025Z" fill="#01002C"/>
<path d="M122.72 79.0161V74.1025H121.236V81.6721H122.383L126.31 76.7585V81.6721H127.794V74.1025H126.648L122.72 79.0161Z" fill="#01002C"/>
<path d="M134.773 77.0905H131.368V74.1025H129.884V81.6721H131.368V78.4849H134.773V81.6721H136.256V74.1025H134.773V77.0905Z" fill="#01002C"/>
<path d="M88.2811 75.7293C88.1631 75.4139 87.9776 75.1317 87.7248 74.8827C87.4888 74.6337 87.1853 74.4345 86.8482 74.3017C86.4942 74.1523 86.1065 74.0859 85.685 74.0859H82.145V81.6721H83.6116V79.2983H85.685C86.1065 79.2983 86.511 79.2319 86.8482 79.0825C87.1853 78.9497 87.4888 78.7505 87.7248 78.5015C87.9608 78.2525 88.1462 77.9869 88.2811 77.6715C88.3991 77.3561 88.4665 77.0407 88.4665 76.7087C88.4665 76.3601 88.4159 76.0447 88.2811 75.7293ZM86.9156 77.1735C86.865 77.3229 86.7976 77.4557 86.6965 77.5719C86.5953 77.6715 86.4773 77.7711 86.3088 77.8375C86.157 77.9039 85.9547 77.9371 85.685 77.9371H83.6116V75.4803H85.685C85.9547 75.4803 86.1402 75.5135 86.2919 75.5799H86.3088C86.4773 75.6463 86.5953 75.7293 86.6965 75.8455C86.7976 75.9451 86.865 76.0779 86.9156 76.2107C86.9662 76.3601 86.9999 76.5261 86.9999 76.6921C86.9999 76.8581 86.9662 77.0241 86.9156 77.1735Z" fill="#01002C"/>
<path d="M69.7887 74.1025L66.3667 81.6721H67.9681L68.8279 79.7631H72.0307L72.8904 81.6721H74.4919L71.0699 74.1025H69.7887ZM69.4516 78.3853L70.4461 76.1443L71.4407 78.3853H69.4516Z" fill="#01002C"/>
<path d="M61.5452 78.4683H64.6975V77.1071H61.5452V75.4637H65.6246V74.1025H60.0786V81.6721H65.7258V80.3109H61.5452V78.4683Z" fill="#01002C"/>
<path d="M91.7701 74.1025L88.3481 81.6721H89.9496L90.8093 79.7631H94.0121L94.8718 81.6721H96.4733L93.0513 74.1025H91.7701ZM91.4161 78.3853L92.4107 76.1443L93.4053 78.3853H91.4161Z" fill="#01002C"/>
<path d="M145.679 76.2107C145.477 75.7293 145.19 75.3143 144.836 74.9657C144.482 74.6171 144.061 74.3515 143.572 74.1523C143.083 73.9531 142.561 73.8535 142.004 73.8535C141.448 73.8535 140.926 73.9531 140.437 74.1523C139.948 74.3515 139.526 74.6171 139.172 74.9657C138.818 75.3143 138.532 75.7293 138.313 76.2107C138.11 76.6921 138.009 77.2067 138.009 77.7545C138.009 78.3023 138.11 78.8335 138.313 79.3149C138.515 79.7797 138.802 80.1947 139.172 80.5433C139.526 80.8919 139.948 81.1575 140.437 81.3567C140.926 81.5559 141.448 81.6555 142.004 81.6555C142.561 81.6555 143.083 81.5559 143.572 81.3567C144.061 81.1575 144.482 80.8753 144.836 80.5433C145.19 80.1947 145.477 79.7797 145.679 79.3149C145.882 78.8335 146 78.3023 146 77.7545C145.983 77.2067 145.882 76.6921 145.679 76.2107ZM144.297 78.8003C144.179 79.0991 144.01 79.3647 143.791 79.5805C143.589 79.7963 143.336 79.9623 143.016 80.0785C142.712 80.1947 142.375 80.2611 142.004 80.2611C141.634 80.2611 141.28 80.1947 140.976 80.0785C140.673 79.9623 140.42 79.7963 140.201 79.5805C139.998 79.3647 139.83 79.0991 139.712 78.8003C139.594 78.4849 139.526 78.1529 139.526 77.7711C139.526 77.3893 139.594 77.0407 139.712 76.7419C139.83 76.4431 139.998 76.1775 140.201 75.9617C140.42 75.7459 140.673 75.5799 140.976 75.4637C141.28 75.3475 141.617 75.2811 142.004 75.2811C142.375 75.2811 142.712 75.3475 143.016 75.4637C143.319 75.5799 143.572 75.7459 143.774 75.9617C143.994 76.1775 144.162 76.4265 144.28 76.7419C144.398 77.0407 144.466 77.3893 144.466 77.7711C144.466 78.1529 144.415 78.4849 144.297 78.8003Z" fill="#01002C"/>
<path d="M47.4021 1.6434C47.3684 1.826 47.3347 2.0252 47.3178 2.2576V21.829C47.3178 42.0644 44.233 47.4262 36.2933 52.1738C30.8147 54.2156 24.7461 54.2156 24.7461 54.2156V57.0044C24.7461 57.0044 27.0724 57.0044 33.7815 56.8052C43.6093 56.523 54.3473 49.8 53.6561 24.9498L53.5044 7.2708H57.7187H59.1347V51.4434H66.4676V0H47.4021V1.6434Z" fill="#01002C"/>
<path d="M85.3984 14.3092L78.0824 23.8542V0.0664062H70.7495V51.3604H78.0824V34.3454L85.3984 24.8668V51.3604H92.8156V0.0664062H85.3984V14.3092Z" fill="#01002C"/>
<path d="M119.046 0.0664062H111.628V44.6208H104.38V0.0664062H96.9795V51.3604H115.303V56.5894H122.704V44.6208H119.046V0.0664062Z" fill="#01002C"/>
<path d="M134.841 0.0664062C129.379 0.0664062 124.895 4.46541 124.895 9.82721V51.4268H132.228C132.228 47.0942 134.841 43.5086 138.667 41.8818V51.4268H145.983V0.0664062H134.841V0.0664062ZM138.65 34.3454C136.712 34.7936 134.537 35.7398 132.211 37.5658V9.82721C132.211 8.43281 133.408 7.25421 134.824 7.25421H138.634V34.3454H138.65Z" fill="#01002C"/>
<path d="M0.0673828 26.3111C0.0673828 39.0267 10.5357 49.3519 23.4651 49.3519H24.4091V42.8945H23.9371C15.6603 42.8945 8.96797 36.2877 8.96797 28.1537H24.4091V1.42773H0.084241V26.3111H0.0673828ZM10.9403 12.3671H12.4406H12.4574H12.4743C12.5586 12.3671 12.7946 12.3671 13.3846 12.3671C15.6097 12.3671 19.47 14.5417 19.47 17.0815C19.47 17.0815 16.7728 15.5377 14.7837 15.2389C13.1991 15.0065 10.6368 14.9733 9.05226 15.2389C7.19797 15.5377 4.71996 17.0815 4.71996 17.0815C4.75368 14.5417 7.90597 12.3671 10.9403 12.3671Z" fill="#01002C"/>
<path d="M38.906 20.7332C37.3214 20.9656 34.7592 20.9988 33.1746 20.7332C31.3203 20.4344 28.8423 18.8906 28.8423 18.8906C28.8423 21.4304 31.9946 23.605 35.0457 23.605C36.0909 23.605 36.4449 23.605 36.546 23.605C36.546 23.605 36.664 23.605 37.49 23.605C39.7152 23.605 43.5755 21.4304 43.5755 18.8906C43.5755 18.8906 40.8783 20.4344 38.906 20.7332Z" fill="#D13232"/>
<path d="M24.8641 34.561H24.3921V49.3018H39.8333C39.8333 41.1512 33.141 34.561 24.8641 34.561Z" fill="#D13232"/>
</g>
<defs>
<clipPath id="clip0_94_200">
<rect width="146" height="83" fill="white"/>
</clipPath>
</defs>
</svg>
