<svg width="24" height="24" viewBox="0 0 24 24" fill="none" xmlns="http://www.w3.org/2000/svg">
<path fill-rule="evenodd" clip-rule="evenodd" d="M7.95317 3.72513C7.75325 3.5151 7.51861 3.34389 7.2383 3.25414C6.95156 3.16232 6.66168 3.17008 6.38002 3.24866C5.85354 3.39554 5.32165 3.80154 4.7603 4.32567L4.75756 4.32825C3.65913 5.36772 3.18819 6.50821 3.1875 7.74609C3.18683 8.94795 3.63018 10.1896 4.23834 11.4554L4.2433 11.4654C5.66992 14.2888 7.79605 16.6712 10.4062 18.3668C13.6131 20.4728 15.7093 21.031 17.202 20.7417C18.6036 20.4701 19.3261 19.4675 19.8028 18.8062C19.8428 18.7506 19.8811 18.6975 19.9179 18.6474C19.946 18.6091 19.9762 18.5688 20.0078 18.5265C20.2453 18.2085 20.5641 17.7817 20.7152 17.3209C20.8071 17.0406 20.8476 16.7247 20.7757 16.3876C20.7064 16.0629 20.5411 15.7584 20.2863 15.4739C20.2672 15.4478 20.2505 15.428 20.2424 15.4185L20.2407 15.4165C20.2152 15.3862 20.1851 15.3527 20.1533 15.3185C20.0893 15.2494 20.0049 15.1624 19.9071 15.064C19.7107 14.8666 19.4494 14.6125 19.1641 14.3433C18.5991 13.8101 17.9157 13.1941 17.4499 12.8406C17.4442 12.8363 17.4383 12.832 17.4324 12.8278C17.1778 12.6497 16.9027 12.5408 16.6098 12.5316C16.3162 12.5224 16.0613 12.6151 15.8508 12.7435C15.4765 12.9717 15.1684 13.3656 14.9356 13.6632C14.928 13.673 14.9204 13.6826 14.913 13.6922C14.6404 14.0403 14.4391 14.2913 14.2337 14.4311C14.1433 14.4925 14.0769 14.5138 14.0259 14.5186C13.979 14.5231 13.9047 14.5178 13.7881 14.4576C12.9022 13.9984 11.9557 13.2097 11.1213 12.3618C10.2894 11.5166 9.60378 10.6484 9.23296 10.0637C9.20892 10.0259 9.20937 10.0085 9.2114 9.99063C9.21512 9.95767 9.23383 9.8919 9.30121 9.78327C9.41767 9.5955 9.5927 9.40631 9.81505 9.16596C9.87419 9.10204 9.93667 9.03451 10.0023 8.96242C10.276 8.66165 10.6206 8.26323 10.7686 7.80374C10.8477 7.55807 10.8753 7.28402 10.8052 6.9958C10.7356 6.70989 10.5799 6.45088 10.3572 6.21686L7.95317 3.72513ZM5.52947 5.14665C4.63943 5.98947 4.313 6.84087 4.3125 7.74672C4.31198 8.68776 4.66299 9.7406 5.24993 10.9631C6.58883 13.6107 8.58086 15.8397 11.0202 17.4241L11.0226 17.4257C14.1776 19.4978 15.9495 19.8385 16.9879 19.6373C17.9369 19.4533 18.4117 18.8026 18.9114 18.1178C18.9446 18.0724 18.9779 18.0268 19.0114 17.9811C19.0433 17.9378 19.0745 17.8956 19.1048 17.8546C19.3588 17.5111 19.5566 17.2437 19.6462 16.9704C19.69 16.8367 19.6975 16.7258 19.6755 16.6225C19.6534 16.519 19.5924 16.3802 19.4311 16.2056C19.4118 16.1847 19.3941 16.1623 19.3782 16.1388C19.3684 16.1273 19.3523 16.1091 19.3283 16.0832C19.2769 16.0279 19.2029 15.9513 19.1094 15.8573C18.9233 15.6702 18.6707 15.4246 18.392 15.1615C17.8331 14.6341 17.1931 14.0594 16.7792 13.7439C16.6652 13.6658 16.6004 13.6568 16.5746 13.656C16.5488 13.6552 16.5075 13.6607 16.4365 13.704C16.2602 13.8115 16.0729 14.0356 15.7988 14.3857C15.7873 14.4003 15.7757 14.4152 15.7639 14.4303C15.5314 14.7278 15.2294 15.1143 14.8664 15.3612C14.6634 15.4994 14.4185 15.6114 14.1321 15.6386C13.8417 15.6662 13.5526 15.6022 13.2716 15.457C12.2354 14.92 11.192 14.0375 10.3195 13.151C9.44434 12.2618 8.7052 11.332 8.28309 10.6665M5.52947 5.14665C6.08221 4.63072 6.44135 4.39951 6.68234 4.33228C6.78452 4.30377 6.84755 4.31029 6.89524 4.32556C6.94863 4.34265 7.02946 4.3862 7.13915 4.50166L9.54341 6.9936C9.6598 7.11628 9.69847 7.20594 9.71204 7.26173C9.7251 7.31541 9.72441 7.37605 9.69774 7.45887C9.63413 7.65636 9.45699 7.89019 9.1703 8.20516C9.12566 8.25421 9.07746 8.30606 9.02716 8.36018C8.7979 8.60683 8.52488 8.90056 8.34518 9.19028C8.22928 9.37714 8.12285 9.60481 8.09352 9.86425C8.0625 10.1387 8.12223 10.4131 8.28309 10.6665" fill="#01002C"/>
</svg>
