<svg width="42" height="42" viewBox="0 0 42 42" fill="none" xmlns="http://www.w3.org/2000/svg">
<circle cx="21" cy="21" r="21" fill="#01002C"/>
<g clip-path="url(#clip0_94_553)">
<path d="M30.6522 12.9126H11.3478C10.0531 12.9126 9 13.9671 9 15.2604V26.7387C9 28.0335 10.0546 29.0865 11.3478 29.0865H30.6522C31.9449 29.0865 33 28.0341 33 26.7387V15.2604C33 13.9676 31.9473 12.9126 30.6522 12.9126ZM30.5889 14.4778C30.1907 14.876 21.8293 23.2374 21.5534 23.5134C21.2475 23.8193 20.7525 23.8193 20.4466 23.5134C20.1705 23.2371 11.8091 14.8758 11.4111 14.4778H30.5889ZM10.5652 26.6754V15.8455L15.9802 21.2604L10.5652 26.6754ZM11.9328 27.5213L17.0869 22.3672L19.3398 24.6201C20.2551 25.5354 21.7447 25.5355 22.6601 24.6201L24.913 22.3672L30.0671 27.5213H11.9328ZM31.4348 26.6754L26.0198 21.2604L31.4348 15.8455V26.6754H31.4348Z" fill="white"/>
</g>
<defs>
<clipPath id="clip0_94_553">
<rect width="24" height="24" fill="white" transform="translate(9 8.99963)"/>
</clipPath>
</defs>
</svg>
