<svg width="24" height="24" viewBox="0 0 24 24" fill="none" xmlns="http://www.w3.org/2000/svg">
<path fill-rule="evenodd" clip-rule="evenodd" d="M12 0C8.741 0 8.33234 0.0138139 7.05242 0.0722133C5.77516 0.13047 4.90283 0.333343 4.13954 0.630008C3.35044 0.936629 2.68123 1.34695 2.01406 2.01406C1.34695 2.68123 0.936629 3.35044 0.630008 4.13954C0.333343 4.90283 0.13047 5.77516 0.0722133 7.05242C0.0138139 8.33234 0 8.741 0 12C0 15.259 0.0138139 15.6677 0.0722133 16.9476C0.13047 18.2248 0.333343 19.0972 0.630008 19.8605C0.936629 20.6496 1.34695 21.3188 2.01406 21.9859C2.68123 22.6531 3.35044 23.0634 4.13954 23.37C4.90283 23.6667 5.77516 23.8695 7.05242 23.9278C8.33234 23.9862 8.741 24 12 24C15.259 24 15.6677 23.9862 16.9476 23.9278C18.2248 23.8695 19.0972 23.6667 19.8605 23.37C20.6496 23.0634 21.3188 22.6531 21.9859 21.9859C22.6531 21.3188 23.0634 20.6496 23.37 19.8605C23.6667 19.0972 23.8695 18.2248 23.9278 16.9476C23.9862 15.6677 24 15.259 24 12C24 8.741 23.9862 8.33234 23.9278 7.05242C23.8695 5.77516 23.6667 4.90283 23.37 4.13954C23.0634 3.35044 22.6531 2.68123 21.9859 2.01406C21.3188 1.34695 20.6496 0.936629 19.8605 0.630008C19.0972 0.333343 18.2248 0.13047 16.9476 0.0722133C15.6677 0.0138139 15.259 0 12 0ZM12 2.16256C15.2041 2.16256 15.5836 2.1748 16.849 2.23253C18.019 2.28588 18.6544 2.48137 19.0772 2.64571C19.6373 2.86339 20.0371 3.12342 20.457 3.54335C20.8769 3.96324 21.137 4.36298 21.3546 4.9231C21.519 5.34594 21.7145 5.98132 21.7678 7.15129C21.8256 8.41662 21.8378 8.79616 21.8378 12.0003C21.8378 15.2043 21.8256 15.5839 21.7678 16.8492C21.7145 18.0192 21.519 18.6545 21.3546 19.0774C21.137 19.6375 20.8769 20.0372 20.457 20.4571C20.0371 20.8771 19.6373 21.1371 19.0772 21.3548C18.6544 21.5191 18.019 21.7146 16.849 21.7679C15.5838 21.8257 15.2043 21.8379 12 21.8379C8.79559 21.8379 8.41613 21.8257 7.15092 21.7679C5.98093 21.7146 5.34554 21.5191 4.9227 21.3548C4.36257 21.1371 3.96282 20.8771 3.54293 20.4571C3.12303 20.0372 2.86295 19.6375 2.64526 19.0774C2.48092 18.6545 2.28543 18.0192 2.23208 16.8492C2.17435 15.5839 2.16211 15.2043 2.16211 12.0003C2.16211 8.79616 2.17435 8.41662 2.23208 7.15129C2.28543 5.98132 2.48092 5.34594 2.64526 4.9231C2.86295 4.36298 3.12298 3.96324 3.54293 3.54335C3.96282 3.12342 4.36257 2.86339 4.9227 2.64571C5.34554 2.48137 5.98093 2.28588 7.15092 2.23253C8.41628 2.1748 8.79582 2.16256 12 2.16256ZM5.83777 12.0003C5.83777 8.59712 8.59664 5.83839 12 5.83839C15.4032 5.83839 18.1621 8.59712 18.1621 12.0003C18.1621 15.4034 15.4032 18.1621 12 18.1621C8.59664 18.1621 5.83777 15.4034 5.83777 12.0003ZM12 16C9.79085 16 8 14.2091 8 12C8 9.79085 9.79085 8 12 8C14.2091 8 16 9.79085 16 12C16 14.2091 14.2091 16 12 16ZM18.4057 7.03422C19.201 7.03422 19.8457 6.38956 19.8457 5.59428C19.8457 4.79901 19.201 4.1543 18.4057 4.1543C17.6104 4.1543 16.9657 4.79901 16.9657 5.59428C16.9657 6.38956 17.6104 7.03422 18.4057 7.03422Z" fill="white"/>
</svg>
