<svg width="42" height="42" viewBox="0 0 42 42" fill="none" xmlns="http://www.w3.org/2000/svg">
<circle cx="21" cy="21" r="21" fill="#01002C"/>
<path fill-rule="evenodd" clip-rule="evenodd" d="M16.9532 12.7248C16.7533 12.5147 16.5186 12.3435 16.2383 12.2538C15.9516 12.162 15.6617 12.1697 15.38 12.2483C14.8535 12.3952 14.3216 12.8012 13.7603 13.3253L13.7576 13.3279C12.6591 14.3674 12.1882 15.5078 12.1875 16.7457C12.1868 17.9476 12.6302 19.1892 13.2383 20.455L13.2433 20.4651C14.6699 23.2884 16.7961 25.6708 19.4062 27.3664C22.6131 29.4725 24.7093 30.0306 26.202 29.7413C27.6036 29.4697 28.3261 28.4672 28.8028 27.8058C28.8428 27.7503 28.8811 27.6971 28.9179 27.6471C28.946 27.6088 28.9762 27.5684 29.0078 27.5261C29.2453 27.2081 29.5641 26.7813 29.7152 26.3206C29.8071 26.0402 29.8476 25.7244 29.7757 25.3873C29.7064 25.0625 29.5411 24.7581 29.2863 24.4736C29.2672 24.4474 29.2505 24.4277 29.2424 24.4181L29.2407 24.4161C29.2152 24.3858 29.1851 24.3523 29.1533 24.3181C29.0893 24.249 29.0049 24.162 28.9071 24.0637C28.7107 23.8662 28.4494 23.6122 28.1641 23.3429C27.5991 22.8097 26.9157 22.1938 26.4499 21.8403C26.4442 21.8359 26.4383 21.8316 26.4324 21.8275C26.1778 21.6493 25.9027 21.5404 25.6098 21.5312C25.3162 21.522 25.0613 21.6148 24.8508 21.7431C24.4765 21.9713 24.1684 22.3653 23.9356 22.6629C23.928 22.6726 23.9204 22.6823 23.913 22.6918C23.6404 23.04 23.4391 23.2909 23.2337 23.4307C23.1433 23.4922 23.0769 23.5134 23.0259 23.5183C22.979 23.5227 22.9047 23.5174 22.7881 23.4572C21.9022 22.998 20.9557 22.2093 20.1213 21.3615C19.2894 20.5162 18.6038 19.648 18.233 19.0634C18.2089 19.0255 18.2094 19.0082 18.2114 18.9903C18.2151 18.9573 18.2338 18.8915 18.3012 18.7829C18.4177 18.5951 18.5927 18.4059 18.8151 18.1656C18.8742 18.1017 18.9367 18.0341 19.0023 17.9621C19.276 17.6613 19.6206 17.2629 19.7686 16.8034C19.8477 16.5577 19.8753 16.2837 19.8052 15.9954C19.7356 15.7095 19.5799 15.4505 19.3572 15.2165L16.9532 12.7248ZM14.5295 14.1463C13.6394 14.9891 13.313 15.8405 13.3125 16.7464C13.312 17.6874 13.663 18.7402 14.2499 19.9627C15.5888 22.6103 17.5809 24.8394 20.0202 26.4238L20.0226 26.4253C23.1776 28.4975 24.9495 28.8382 25.9879 28.6369C26.9369 28.453 27.4117 27.8022 27.9114 27.1174C27.9446 27.072 27.9779 27.0264 28.0114 26.9808C28.0433 26.9374 28.0745 26.8952 28.1048 26.8542C28.3588 26.5108 28.5566 26.2433 28.6462 25.97C28.69 25.8363 28.6975 25.7254 28.6755 25.6222C28.6534 25.5187 28.5924 25.3798 28.4311 25.2052C28.4118 25.1843 28.3941 25.1619 28.3782 25.1384C28.3684 25.127 28.3523 25.1088 28.3283 25.0829C28.2769 25.0275 28.2029 24.951 28.1094 24.857C27.9233 24.6698 27.6707 24.4242 27.392 24.1611C26.8331 23.6337 26.1931 23.059 25.7792 22.7435C25.6652 22.6654 25.6004 22.6565 25.5746 22.6557C25.5488 22.6548 25.5075 22.6603 25.4365 22.7036C25.2602 22.8111 25.0729 23.0352 24.7988 23.3853C24.7873 23.3999 24.7757 23.4148 24.7639 23.43C24.5314 23.7274 24.2294 24.114 23.8664 24.3609C23.6634 24.499 23.4185 24.6111 23.1321 24.6382C22.8417 24.6658 22.5526 24.6018 22.2716 24.4566C21.2354 23.9196 20.192 23.0371 19.3195 22.1506C18.4443 21.2614 17.7052 20.3316 17.2831 19.6662M14.5295 14.1463C15.0822 13.6304 15.4413 13.3991 15.6823 13.3319C15.7845 13.3034 15.8475 13.3099 15.8952 13.3252C15.9486 13.3423 16.0295 13.3858 16.1392 13.5013L18.5434 15.9932C18.6598 16.1159 18.6985 16.2056 18.712 16.2614C18.7251 16.315 18.7244 16.3757 18.6977 16.4585C18.6341 16.656 18.457 16.8898 18.1703 17.2048C18.1257 17.2538 18.0775 17.3057 18.0272 17.3598C17.7979 17.6065 17.5249 17.9002 17.3452 18.1899C17.2293 18.3768 17.1228 18.6044 17.0935 18.8639C17.0625 19.1383 17.1222 19.4127 17.2831 19.6662" fill="white"/>
</svg>
