<svg width="42" height="42" viewBox="0 0 42 42" fill="none" xmlns="http://www.w3.org/2000/svg">
<circle cx="21" cy="21" r="21" fill="#01002C"/>
<path fill-rule="evenodd" clip-rule="evenodd" d="M7.86247 21.2798C10.3174 19.9224 13.0577 18.7895 15.6181 17.6508C20.023 15.7857 24.4455 13.9529 28.9125 12.2466C29.7816 11.9559 31.3433 11.6716 31.4964 12.9646C31.4126 14.7947 31.0676 16.6141 30.831 18.4336C30.2306 22.4346 29.5364 26.422 28.8597 30.41C28.6264 31.7382 26.9688 32.426 25.9081 31.5759C23.3591 29.8475 20.7904 28.1359 18.2739 26.3674C17.4495 25.5265 18.2141 24.3191 18.9501 23.7186C21.0496 21.6415 23.2761 19.8771 25.2659 17.6928C25.8026 16.3916 24.2167 17.4881 23.6937 17.8242C20.8195 19.8124 18.0156 21.922 14.9853 23.6694C13.4374 24.5248 11.6334 23.7938 10.0862 23.3165C8.69897 22.74 6.66617 22.159 7.86229 21.28L7.86247 21.2798Z" fill="white"/>
</svg>
