<svg width="42" height="42" viewBox="0 0 42 42" fill="none" xmlns="http://www.w3.org/2000/svg">
<circle cx="21" cy="21" r="21" fill="#01002C"/>
<path fill-rule="evenodd" clip-rule="evenodd" d="M31.0344 20.4232C31.0344 25.9894 26.4875 30.5016 20.8776 30.5016C19.0967 30.5016 17.4236 30.0465 15.9679 29.2476L10.3447 31.0345L12.1781 25.6271C11.2532 24.1085 10.7206 22.3274 10.7206 20.4232C10.7206 14.857 15.2679 10.3448 20.8776 10.3448C26.4879 10.3448 31.0344 14.857 31.0344 20.4232ZM20.8776 11.9499C16.1686 11.9499 12.3383 15.7511 12.3383 20.4232C12.3383 22.2773 12.9427 23.9943 13.965 25.3911L12.8981 28.538L16.1797 27.495C17.5279 28.3803 19.1431 28.8966 20.8778 28.8966C25.5861 28.8966 29.4171 25.0959 29.4171 20.4237C29.4171 15.7515 25.5863 11.9499 20.8776 11.9499ZM25.6641 22.5216C25.8383 22.6051 25.9559 22.6615 26.0066 22.7444C26.0684 22.8474 26.0684 23.3419 25.8615 23.9193C25.6532 24.4959 24.6367 25.0522 24.1806 25.0934C24.1024 25.1004 24.0376 25.116 23.9712 25.1319C23.6498 25.2091 23.2905 25.2953 21.1928 24.4759C18.8538 23.5617 17.312 21.2927 16.9934 20.8238C16.9672 20.7853 16.9493 20.7589 16.9399 20.7465L16.9395 20.7459C16.8131 20.5793 15.9233 19.406 15.9233 18.1917C15.9233 17.0545 16.4863 16.4581 16.7455 16.1834C16.7633 16.1646 16.7797 16.1472 16.7944 16.1313C17.0227 15.8842 17.2925 15.8223 17.4585 15.8223C17.5443 15.8223 17.6301 15.8278 17.7131 15.8332C17.7906 15.8382 17.8657 15.843 17.9358 15.843C17.9532 15.843 17.9715 15.8418 17.9905 15.8406C18.1308 15.8316 18.3132 15.8198 18.4958 16.255C18.5622 16.4135 18.6586 16.6462 18.7609 16.8931C18.9778 17.4167 19.2214 18.0049 19.2636 18.0888C19.3261 18.2127 19.3677 18.3568 19.2843 18.5216C19.2724 18.5453 19.2614 18.5678 19.2509 18.5892C19.1881 18.7171 19.1424 18.8102 19.0355 18.9338C18.9943 18.9816 18.9517 19.033 18.9091 19.0845C18.8231 19.1884 18.737 19.2924 18.662 19.3665C18.5376 19.4894 18.4077 19.623 18.5528 19.8701C18.6981 20.1177 19.1978 20.926 19.9378 21.5807C20.7339 22.285 21.4255 22.5827 21.7757 22.7334C21.8439 22.7628 21.8991 22.7866 21.9397 22.8067C22.1889 22.9304 22.3339 22.9097 22.4792 22.7444C22.6247 22.5796 23.102 22.0235 23.2677 21.7761C23.4335 21.529 23.5999 21.5704 23.8282 21.6527C24.0558 21.7347 25.2801 22.3327 25.5293 22.4561C25.5774 22.48 25.6224 22.5015 25.6641 22.5216Z" fill="white"/>
</svg>
